<svg width="15" height="15" viewBox="0 0 15 15" fill="none" xmlns="http://www.w3.org/2000/svg">
<path d="M8.89993 3.99999C9.78358 3.99999 10.4999 3.28364 10.4999 2.39999C10.4999 1.51633 9.78358 0.799988 8.89993 0.799988C8.01627 0.799988 7.29993 1.51633 7.29993 2.39999C7.29993 3.28364 8.01627 3.99999 8.89993 3.99999Z" fill="white"/>
<path d="M10.536 10.492C10.4918 10.4622 10.4421 10.4416 10.3898 10.4314C10.3376 10.4211 10.2838 10.4214 10.2316 10.4322C10.1794 10.443 10.1299 10.4641 10.0861 10.4943C10.0422 10.5245 10.0047 10.5631 9.97599 10.608C9.58931 11.1806 9.11561 11.6894 8.57199 12.116C8.43999 12.216 7.94799 12.596 7.73999 12.516C7.59599 12.472 7.67999 12.188 7.70799 12.068L7.91999 11.44C8.00799 11.184 9.53999 6.63998 9.70799 6.11998C9.95599 5.35998 9.84799 4.61198 8.71599 4.79198C8.40799 4.82398 5.28399 5.22798 5.22799 5.23198C5.17546 5.23539 5.12412 5.24912 5.0769 5.27238C5.02968 5.29563 4.9875 5.32796 4.95277 5.36752C4.91804 5.40708 4.89144 5.45309 4.87449 5.50293C4.85754 5.55276 4.85058 5.60545 4.85399 5.65798C4.85741 5.71051 4.87114 5.76185 4.89439 5.80907C4.91765 5.8563 4.94998 5.89848 4.98954 5.93321C5.02909 5.96794 5.0751 5.99453 5.12494 6.01148C5.17478 6.02843 5.22746 6.03539 5.27999 6.03198C5.27999 6.03198 6.47999 5.87598 6.61199 5.86398C6.67961 5.85738 6.74768 5.87048 6.80801 5.90171C6.86834 5.93294 6.91835 5.98096 6.95199 6.03998C7.02447 6.26403 7.01454 6.5066 6.92399 6.72398C6.81999 7.12398 5.17599 11.756 5.12399 12.024C5.06822 12.2482 5.08371 12.4843 5.1683 12.6994C5.25289 12.9144 5.40238 13.0978 5.59599 13.224C5.9594 13.4662 6.39209 13.5828 6.82799 13.556C7.25182 13.5508 7.67097 13.4667 8.06399 13.308C9.05999 12.908 10.1 11.844 10.648 11.008C10.6952 10.923 10.7098 10.8238 10.6892 10.7289C10.6686 10.6339 10.6141 10.5497 10.536 10.492V10.492Z" fill="white"/>
</svg>
